<svg xmlns="http://www.w3.org/2000/svg" xmlns:xlink="http://www.w3.org/1999/xlink" width="500" zoomAndPan="magnify" viewBox="0 0 375 374.999991" height="500" preserveAspectRatio="xMidYMid meet" version="1.0"><defs><g/><clipPath id="05c1ccf881"><path d="M 123.347656 47.113281 L 251.597656 47.113281 L 251.597656 209.039062 L 123.347656 209.039062 Z M 123.347656 47.113281 " clip-rule="nonzero"/></clipPath><clipPath id="949510500a"><path d="M 245.039062 194.070312 L 233.800781 174.855469 C 231.46875 176.25 228.652344 177.675781 226.320312 179.066406 L 231.921875 199.675781 C 236.621094 198.28125 240.832031 196.402344 245.039062 194.070312 Z M 216.019531 92.460938 C 235.679688 92.460938 251.582031 108.371094 251.582031 128.039062 C 251.582031 147.703125 235.679688 163.160156 216.019531 163.160156 C 196.847656 163.160156 180.914062 147.703125 180.914062 128.039062 C 180.914062 108.371094 196.847656 92.460938 216.019531 92.460938 Z M 216.019531 103.707031 C 229.589844 103.707031 240.34375 114.460938 240.34375 128.039062 C 240.34375 141.613281 229.589844 152.371094 216.019531 152.371094 C 202.902344 152.371094 191.699219 141.613281 191.699219 128.039062 C 191.699219 114.460938 202.9375 103.707031 216.019531 103.707031 Z M 204.328125 77.945312 C 219.777344 77.945312 233.800781 84.976562 243.164062 96.675781 C 235.679688 90.128906 226.320312 86.371094 216.019531 86.371094 C 192.605469 86.371094 173.882812 105.097656 173.882812 128.039062 C 173.882812 150.976562 192.605469 169.703125 216.019531 169.703125 C 226.320312 169.703125 235.679688 165.945312 243.164062 159.402344 C 233.800781 171.097656 219.746094 178.128906 204.328125 178.128906 C 176.25 178.128906 153.769531 155.640625 153.769531 128.039062 C 153.769531 100.433594 176.25 77.945312 204.328125 77.945312 Z M 231.957031 61.097656 L 227.257812 77.492188 C 230.078125 78.886719 233.347656 80.765625 236.167969 82.644531 L 245.074219 66.738281 C 240.832031 64.371094 236.621094 62.492188 231.957031 61.097656 Z M 201.996094 47.039062 L 205.269531 72.796875 C 209.023438 72.796875 212.75 73.25 216.019531 73.734375 L 219.292969 48.917969 C 214.628906 47.976562 209.480469 47.039062 204.328125 47.039062 C 203.390625 47.039062 202.9375 47.039062 201.996094 47.039062 Z M 176.703125 66.703125 L 182.304688 77.007812 C 186.0625 75.613281 189.785156 74.1875 193.542969 73.734375 L 189.785156 61.097656 C 185.15625 62.492188 180.914062 64.371094 176.703125 66.703125 Z M 143.019531 75.613281 L 163.132812 91.070312 C 165.464844 87.796875 168.734375 85.464844 172.039062 83.097656 L 156.589844 62.976562 C 151.4375 66.703125 146.773438 70.917969 143.019531 75.613281 Z M 141.625 109.308594 L 150.984375 112.128906 C 152.378906 108.371094 153.804688 104.644531 155.683594 100.886719 L 147.261719 96.1875 C 144.898438 100.402344 143.019531 104.613281 141.625 109.308594 Z M 124.296875 139.734375 L 149.105469 136.460938 C 149.105469 133.644531 148.652344 130.855469 148.652344 128.039062 C 148.652344 126.644531 148.652344 125.703125 148.652344 124.277344 L 123.8125 121.007812 C 123.359375 123.339844 123.359375 125.703125 123.359375 128.039062 C 123.359375 131.796875 123.8125 136.007812 124.296875 139.734375 Z M 147.226562 164.550781 L 157.980469 158.460938 C 155.648438 155.1875 153.769531 151.917969 152.378906 148.15625 L 141.625 151.429688 C 143.019531 156.128906 144.898438 160.339844 147.226562 164.550781 Z M 158.46875 194.976562 L 174.371094 174.855469 C 171.097656 172.523438 168.28125 170.15625 165.464844 167.824219 L 145.351562 183.28125 C 149.558594 187.492188 153.769531 191.703125 158.46875 194.976562 Z M 189.820312 199.675781 L 194.515625 182.824219 C 191.242188 181.886719 187.972656 180.945312 184.703125 180.007812 L 176.734375 194.070312 C 180.914062 196.402344 185.15625 198.28125 189.820312 199.675781 Z M 218.839844 207.644531 L 215.566406 182.371094 C 212.296875 182.824219 209.480469 183.3125 206.207031 183.3125 L 202.9375 208.585938 C 203.390625 208.585938 203.875 209.039062 204.328125 209.039062 C 209.023438 209.039062 214.140625 208.585938 218.839844 207.644531 Z M 218.839844 207.644531 " clip-rule="nonzero"/></clipPath><linearGradient x1="99.351998" gradientTransform="matrix(0.0473191, 0, 0, -0.0473364, 121.125589, 90.631808)" y1="-2547.914601" x2="2999.818289" gradientUnits="userSpaceOnUse" y2="702.689263" id="69e31791a2"><stop stop-opacity="1" stop-color="rgb(97.999573%, 74.099731%, 8.599854%)" offset="0"/><stop stop-opacity="1" stop-color="rgb(97.999573%, 74.099731%, 8.599854%)" offset="0.125"/><stop stop-opacity="1" stop-color="rgb(97.999573%, 74.099731%, 8.599854%)" offset="0.15625"/><stop stop-opacity="1" stop-color="rgb(98.002625%, 73.994446%, 8.584595%)" offset="0.164062"/><stop stop-opacity="1" stop-color="rgb(98.01178%, 73.649597%, 8.538818%)" offset="0.167969"/><stop stop-opacity="1" stop-color="rgb(98.019409%, 73.410034%, 8.508301%)" offset="0.171875"/><stop stop-opacity="1" stop-color="rgb(98.025513%, 73.170471%, 8.476257%)" offset="0.175781"/><stop stop-opacity="1" stop-color="rgb(98.033142%, 72.930908%, 8.444214%)" offset="0.179688"/><stop stop-opacity="1" stop-color="rgb(98.039246%, 72.691345%, 8.41217%)" offset="0.183594"/><stop stop-opacity="1" stop-color="rgb(98.046875%, 72.453308%, 8.381653%)" offset="0.1875"/><stop stop-opacity="1" stop-color="rgb(98.052979%, 72.213745%, 8.349609%)" offset="0.191406"/><stop stop-opacity="1" stop-color="rgb(98.060608%, 71.974182%, 8.317566%)" offset="0.195312"/><stop stop-opacity="1" stop-color="rgb(98.066711%, 71.734619%, 8.285522%)" offset="0.199219"/><stop stop-opacity="1" stop-color="rgb(98.074341%, 71.495056%, 8.255005%)" offset="0.203125"/><stop stop-opacity="1" stop-color="rgb(98.080444%, 71.255493%, 8.222961%)" offset="0.207031"/><stop stop-opacity="1" stop-color="rgb(98.088074%, 71.01593%, 8.190918%)" offset="0.210938"/><stop stop-opacity="1" stop-color="rgb(98.094177%, 70.776367%, 8.158875%)" offset="0.214844"/><stop stop-opacity="1" stop-color="rgb(98.101807%, 70.53833%, 8.128357%)" offset="0.21875"/><stop stop-opacity="1" stop-color="rgb(98.10791%, 70.298767%, 8.096313%)" offset="0.222656"/><stop stop-opacity="1" stop-color="rgb(98.11554%, 70.059204%, 8.065796%)" offset="0.226562"/><stop stop-opacity="1" stop-color="rgb(98.121643%, 69.819641%, 8.033752%)" offset="0.230469"/><stop stop-opacity="1" stop-color="rgb(98.129272%, 69.580078%, 8.001709%)" offset="0.234375"/><stop stop-opacity="1" stop-color="rgb(98.135376%, 69.340515%, 7.969666%)" offset="0.238281"/><stop stop-opacity="1" stop-color="rgb(98.143005%, 69.100952%, 7.939148%)" offset="0.242188"/><stop stop-opacity="1" stop-color="rgb(98.149109%, 68.861389%, 7.907104%)" offset="0.246094"/><stop stop-opacity="1" stop-color="rgb(98.156738%, 68.623352%, 7.875061%)" offset="0.25"/><stop stop-opacity="1" stop-color="rgb(98.162842%, 68.383789%, 7.843018%)" offset="0.253906"/><stop stop-opacity="1" stop-color="rgb(98.170471%, 68.144226%, 7.8125%)" offset="0.257812"/><stop stop-opacity="1" stop-color="rgb(98.176575%, 67.904663%, 7.780457%)" offset="0.261719"/><stop stop-opacity="1" stop-color="rgb(98.184204%, 67.6651%, 7.748413%)" offset="0.265625"/><stop stop-opacity="1" stop-color="rgb(98.190308%, 67.425537%, 7.71637%)" offset="0.269531"/><stop stop-opacity="1" stop-color="rgb(98.197937%, 67.185974%, 7.685852%)" offset="0.273438"/><stop stop-opacity="1" stop-color="rgb(98.205566%, 66.946411%, 7.653809%)" offset="0.277344"/><stop stop-opacity="1" stop-color="rgb(98.213196%, 66.708374%, 7.621765%)" offset="0.28125"/><stop stop-opacity="1" stop-color="rgb(98.219299%, 66.468811%, 7.589722%)" offset="0.285156"/><stop stop-opacity="1" stop-color="rgb(98.226929%, 66.229248%, 7.559204%)" offset="0.289062"/><stop stop-opacity="1" stop-color="rgb(98.233032%, 65.989685%, 7.527161%)" offset="0.292969"/><stop stop-opacity="1" stop-color="rgb(98.240662%, 65.750122%, 7.495117%)" offset="0.296875"/><stop stop-opacity="1" stop-color="rgb(98.246765%, 65.510559%, 7.463074%)" offset="0.300781"/><stop stop-opacity="1" stop-color="rgb(98.254395%, 65.270996%, 7.432556%)" offset="0.304688"/><stop stop-opacity="1" stop-color="rgb(98.260498%, 65.031433%, 7.400513%)" offset="0.308594"/><stop stop-opacity="1" stop-color="rgb(98.268127%, 64.79187%, 7.368469%)" offset="0.3125"/><stop stop-opacity="1" stop-color="rgb(98.274231%, 64.552307%, 7.336426%)" offset="0.316406"/><stop stop-opacity="1" stop-color="rgb(98.28186%, 64.31427%, 7.305908%)" offset="0.320312"/><stop stop-opacity="1" stop-color="rgb(98.287964%, 64.074707%, 7.273865%)" offset="0.324219"/><stop stop-opacity="1" stop-color="rgb(98.295593%, 63.835144%, 7.241821%)" offset="0.328125"/><stop stop-opacity="1" stop-color="rgb(98.301697%, 63.595581%, 7.209778%)" offset="0.332031"/><stop stop-opacity="1" stop-color="rgb(98.309326%, 63.356018%, 7.17926%)" offset="0.335938"/><stop stop-opacity="1" stop-color="rgb(98.31543%, 63.116455%, 7.147217%)" offset="0.339844"/><stop stop-opacity="1" stop-color="rgb(98.323059%, 62.876892%, 7.115173%)" offset="0.34375"/><stop stop-opacity="1" stop-color="rgb(98.329163%, 62.637329%, 7.08313%)" offset="0.347656"/><stop stop-opacity="1" stop-color="rgb(98.336792%, 62.399292%, 7.052612%)" offset="0.351562"/><stop stop-opacity="1" stop-color="rgb(98.342896%, 62.159729%, 7.020569%)" offset="0.355469"/><stop stop-opacity="1" stop-color="rgb(98.350525%, 61.920166%, 6.988525%)" offset="0.359375"/><stop stop-opacity="1" stop-color="rgb(98.356628%, 61.680603%, 6.956482%)" offset="0.363281"/><stop stop-opacity="1" stop-color="rgb(98.364258%, 61.44104%, 6.925964%)" offset="0.367188"/><stop stop-opacity="1" stop-color="rgb(98.370361%, 61.201477%, 6.893921%)" offset="0.371094"/><stop stop-opacity="1" stop-color="rgb(98.377991%, 60.961914%, 6.861877%)" offset="0.375"/><stop stop-opacity="1" stop-color="rgb(98.384094%, 60.722351%, 6.829834%)" offset="0.378906"/><stop stop-opacity="1" stop-color="rgb(98.391724%, 60.484314%, 6.799316%)" offset="0.382812"/><stop stop-opacity="1" stop-color="rgb(98.397827%, 60.244751%, 6.767273%)" offset="0.386719"/><stop stop-opacity="1" stop-color="rgb(98.405457%, 60.005188%, 6.735229%)" offset="0.390625"/><stop stop-opacity="1" stop-color="rgb(98.41156%, 59.765625%, 6.703186%)" offset="0.394531"/><stop stop-opacity="1" stop-color="rgb(98.419189%, 59.526062%, 6.672668%)" offset="0.398438"/><stop stop-opacity="1" stop-color="rgb(98.425293%, 59.286499%, 6.640625%)" offset="0.402344"/><stop stop-opacity="1" stop-color="rgb(98.432922%, 59.046936%, 6.608582%)" offset="0.40625"/><stop stop-opacity="1" stop-color="rgb(98.439026%, 58.807373%, 6.576538%)" offset="0.410156"/><stop stop-opacity="1" stop-color="rgb(98.446655%, 58.569336%, 6.546021%)" offset="0.414062"/><stop stop-opacity="1" stop-color="rgb(98.452759%, 58.329773%, 6.513977%)" offset="0.417969"/><stop stop-opacity="1" stop-color="rgb(98.460388%, 58.09021%, 6.481934%)" offset="0.421875"/><stop stop-opacity="1" stop-color="rgb(98.466492%, 57.850647%, 6.44989%)" offset="0.425781"/><stop stop-opacity="1" stop-color="rgb(98.474121%, 57.611084%, 6.419373%)" offset="0.429688"/><stop stop-opacity="1" stop-color="rgb(98.48175%, 57.371521%, 6.387329%)" offset="0.433594"/><stop stop-opacity="1" stop-color="rgb(98.48938%, 57.131958%, 6.355286%)" offset="0.4375"/><stop stop-opacity="1" stop-color="rgb(98.495483%, 56.892395%, 6.323242%)" offset="0.441406"/><stop stop-opacity="1" stop-color="rgb(98.503113%, 56.654358%, 6.292725%)" offset="0.445312"/><stop stop-opacity="1" stop-color="rgb(98.509216%, 56.414795%, 6.260681%)" offset="0.449219"/><stop stop-opacity="1" stop-color="rgb(98.516846%, 56.175232%, 6.230164%)" offset="0.453125"/><stop stop-opacity="1" stop-color="rgb(98.522949%, 55.935669%, 6.19812%)" offset="0.457031"/><stop stop-opacity="1" stop-color="rgb(98.530579%, 55.696106%, 6.166077%)" offset="0.460938"/><stop stop-opacity="1" stop-color="rgb(98.536682%, 55.456543%, 6.134033%)" offset="0.464844"/><stop stop-opacity="1" stop-color="rgb(98.544312%, 55.21698%, 6.103516%)" offset="0.46875"/><stop stop-opacity="1" stop-color="rgb(98.550415%, 54.977417%, 6.071472%)" offset="0.472656"/><stop stop-opacity="1" stop-color="rgb(98.558044%, 54.737854%, 6.039429%)" offset="0.476562"/><stop stop-opacity="1" stop-color="rgb(98.564148%, 54.498291%, 6.007385%)" offset="0.480469"/><stop stop-opacity="1" stop-color="rgb(98.571777%, 54.260254%, 5.976868%)" offset="0.484375"/><stop stop-opacity="1" stop-color="rgb(98.577881%, 54.020691%, 5.944824%)" offset="0.488281"/><stop stop-opacity="1" stop-color="rgb(98.58551%, 53.781128%, 5.912781%)" offset="0.492188"/><stop stop-opacity="1" stop-color="rgb(98.591614%, 53.541565%, 5.880737%)" offset="0.496094"/><stop stop-opacity="1" stop-color="rgb(98.599243%, 53.302002%, 5.85022%)" offset="0.5"/><stop stop-opacity="1" stop-color="rgb(98.605347%, 53.062439%, 5.818176%)" offset="0.503906"/><stop stop-opacity="1" stop-color="rgb(98.612976%, 52.822876%, 5.786133%)" offset="0.507812"/><stop stop-opacity="1" stop-color="rgb(98.61908%, 52.583313%, 5.754089%)" offset="0.511719"/><stop stop-opacity="1" stop-color="rgb(98.626709%, 52.345276%, 5.723572%)" offset="0.515625"/><stop stop-opacity="1" stop-color="rgb(98.632812%, 52.105713%, 5.691528%)" offset="0.519531"/><stop stop-opacity="1" stop-color="rgb(98.640442%, 51.86615%, 5.659485%)" offset="0.523438"/><stop stop-opacity="1" stop-color="rgb(98.646545%, 51.626587%, 5.627441%)" offset="0.527344"/><stop stop-opacity="1" stop-color="rgb(98.654175%, 51.387024%, 5.596924%)" offset="0.53125"/><stop stop-opacity="1" stop-color="rgb(98.660278%, 51.147461%, 5.56488%)" offset="0.535156"/><stop stop-opacity="1" stop-color="rgb(98.667908%, 50.907898%, 5.532837%)" offset="0.539063"/><stop stop-opacity="1" stop-color="rgb(98.674011%, 50.668335%, 5.500793%)" offset="0.542969"/><stop stop-opacity="1" stop-color="rgb(98.681641%, 50.430298%, 5.470276%)" offset="0.546875"/><stop stop-opacity="1" stop-color="rgb(98.687744%, 50.190735%, 5.438232%)" offset="0.550781"/><stop stop-opacity="1" stop-color="rgb(98.695374%, 49.951172%, 5.406189%)" offset="0.554688"/><stop stop-opacity="1" stop-color="rgb(98.701477%, 49.711609%, 5.374146%)" offset="0.558594"/><stop stop-opacity="1" stop-color="rgb(98.709106%, 49.472046%, 5.343628%)" offset="0.5625"/><stop stop-opacity="1" stop-color="rgb(98.71521%, 49.232483%, 5.311584%)" offset="0.566406"/><stop stop-opacity="1" stop-color="rgb(98.722839%, 48.99292%, 5.279541%)" offset="0.570313"/><stop stop-opacity="1" stop-color="rgb(98.728943%, 48.753357%, 5.247498%)" offset="0.574219"/><stop stop-opacity="1" stop-color="rgb(98.736572%, 48.51532%, 5.21698%)" offset="0.578125"/><stop stop-opacity="1" stop-color="rgb(98.742676%, 48.275757%, 5.184937%)" offset="0.582031"/><stop stop-opacity="1" stop-color="rgb(98.750305%, 48.036194%, 5.152893%)" offset="0.585938"/><stop stop-opacity="1" stop-color="rgb(98.757935%, 47.796631%, 5.12085%)" offset="0.589844"/><stop stop-opacity="1" stop-color="rgb(98.765564%, 47.557068%, 5.090332%)" offset="0.59375"/><stop stop-opacity="1" stop-color="rgb(98.771667%, 47.317505%, 5.058289%)" offset="0.597656"/><stop stop-opacity="1" stop-color="rgb(98.779297%, 47.077942%, 5.026245%)" offset="0.601563"/><stop stop-opacity="1" stop-color="rgb(98.7854%, 46.838379%, 4.994202%)" offset="0.605469"/><stop stop-opacity="1" stop-color="rgb(98.79303%, 46.598816%, 4.963684%)" offset="0.609375"/><stop stop-opacity="1" stop-color="rgb(98.799133%, 46.359253%, 4.931641%)" offset="0.613281"/><stop stop-opacity="1" stop-color="rgb(98.806763%, 46.121216%, 4.899597%)" offset="0.617188"/><stop stop-opacity="1" stop-color="rgb(98.812866%, 45.881653%, 4.867554%)" offset="0.621094"/><stop stop-opacity="1" stop-color="rgb(98.820496%, 45.64209%, 4.837036%)" offset="0.625"/><stop stop-opacity="1" stop-color="rgb(98.826599%, 45.402527%, 4.804993%)" offset="0.628906"/><stop stop-opacity="1" stop-color="rgb(98.834229%, 45.162964%, 4.772949%)" offset="0.632813"/><stop stop-opacity="1" stop-color="rgb(98.840332%, 44.923401%, 4.740906%)" offset="0.636719"/><stop stop-opacity="1" stop-color="rgb(98.847961%, 44.683838%, 4.710388%)" offset="0.640625"/><stop stop-opacity="1" stop-color="rgb(98.854065%, 44.444275%, 4.678345%)" offset="0.644531"/><stop stop-opacity="1" stop-color="rgb(98.861694%, 44.206238%, 4.646301%)" offset="0.648438"/><stop stop-opacity="1" stop-color="rgb(98.867798%, 43.966675%, 4.614258%)" offset="0.652344"/><stop stop-opacity="1" stop-color="rgb(98.875427%, 43.727112%, 4.58374%)" offset="0.65625"/><stop stop-opacity="1" stop-color="rgb(98.881531%, 43.487549%, 4.551697%)" offset="0.660156"/><stop stop-opacity="1" stop-color="rgb(98.88916%, 43.247986%, 4.519653%)" offset="0.664063"/><stop stop-opacity="1" stop-color="rgb(98.895264%, 43.008423%, 4.48761%)" offset="0.667969"/><stop stop-opacity="1" stop-color="rgb(98.902893%, 42.76886%, 4.457092%)" offset="0.671875"/><stop stop-opacity="1" stop-color="rgb(98.908997%, 42.529297%, 4.425049%)" offset="0.675781"/><stop stop-opacity="1" stop-color="rgb(98.916626%, 42.29126%, 4.394531%)" offset="0.679688"/><stop stop-opacity="1" stop-color="rgb(98.922729%, 42.051697%, 4.362488%)" offset="0.683594"/><stop stop-opacity="1" stop-color="rgb(98.930359%, 41.812134%, 4.330444%)" offset="0.6875"/><stop stop-opacity="1" stop-color="rgb(98.936462%, 41.572571%, 4.298401%)" offset="0.691406"/><stop stop-opacity="1" stop-color="rgb(98.944092%, 41.333008%, 4.267883%)" offset="0.695313"/><stop stop-opacity="1" stop-color="rgb(98.950195%, 41.093445%, 4.23584%)" offset="0.699219"/><stop stop-opacity="1" stop-color="rgb(98.957825%, 40.853882%, 4.203796%)" offset="0.703125"/><stop stop-opacity="1" stop-color="rgb(98.963928%, 40.614319%, 4.171753%)" offset="0.707031"/><stop stop-opacity="1" stop-color="rgb(98.971558%, 40.376282%, 4.141235%)" offset="0.710938"/><stop stop-opacity="1" stop-color="rgb(98.977661%, 40.136719%, 4.109192%)" offset="0.714844"/><stop stop-opacity="1" stop-color="rgb(98.985291%, 39.897156%, 4.077148%)" offset="0.71875"/><stop stop-opacity="1" stop-color="rgb(98.991394%, 39.657593%, 4.045105%)" offset="0.722656"/><stop stop-opacity="1" stop-color="rgb(98.999023%, 39.41803%, 4.014587%)" offset="0.726563"/><stop stop-opacity="1" stop-color="rgb(99.005127%, 39.178467%, 3.982544%)" offset="0.730469"/><stop stop-opacity="1" stop-color="rgb(99.012756%, 38.938904%, 3.9505%)" offset="0.734375"/><stop stop-opacity="1" stop-color="rgb(99.020386%, 38.699341%, 3.918457%)" offset="0.738281"/><stop stop-opacity="1" stop-color="rgb(99.028015%, 38.461304%, 3.887939%)" offset="0.742188"/><stop stop-opacity="1" stop-color="rgb(99.034119%, 38.221741%, 3.855896%)" offset="0.746094"/><stop stop-opacity="1" stop-color="rgb(99.041748%, 37.982178%, 3.823853%)" offset="0.75"/><stop stop-opacity="1" stop-color="rgb(99.047852%, 37.742615%, 3.791809%)" offset="0.753906"/><stop stop-opacity="1" stop-color="rgb(99.055481%, 37.503052%, 3.761292%)" offset="0.757813"/><stop stop-opacity="1" stop-color="rgb(99.061584%, 37.263489%, 3.729248%)" offset="0.761719"/><stop stop-opacity="1" stop-color="rgb(99.069214%, 37.023926%, 3.697205%)" offset="0.765625"/><stop stop-opacity="1" stop-color="rgb(99.075317%, 36.784363%, 3.665161%)" offset="0.769531"/><stop stop-opacity="1" stop-color="rgb(99.082947%, 36.5448%, 3.634644%)" offset="0.773438"/><stop stop-opacity="1" stop-color="rgb(99.08905%, 36.305237%, 3.6026%)" offset="0.777344"/><stop stop-opacity="1" stop-color="rgb(99.09668%, 36.0672%, 3.570557%)" offset="0.78125"/><stop stop-opacity="1" stop-color="rgb(99.102783%, 35.827637%, 3.538513%)" offset="0.785156"/><stop stop-opacity="1" stop-color="rgb(99.110413%, 35.588074%, 3.507996%)" offset="0.789063"/><stop stop-opacity="1" stop-color="rgb(99.116516%, 35.348511%, 3.475952%)" offset="0.792969"/><stop stop-opacity="1" stop-color="rgb(99.124146%, 35.108948%, 3.443909%)" offset="0.796875"/><stop stop-opacity="1" stop-color="rgb(99.130249%, 34.869385%, 3.411865%)" offset="0.800781"/><stop stop-opacity="1" stop-color="rgb(99.137878%, 34.629822%, 3.381348%)" offset="0.804688"/><stop stop-opacity="1" stop-color="rgb(99.143982%, 34.390259%, 3.349304%)" offset="0.808594"/><stop stop-opacity="1" stop-color="rgb(99.151611%, 34.152222%, 3.317261%)" offset="0.8125"/><stop stop-opacity="1" stop-color="rgb(99.157715%, 33.912659%, 3.285217%)" offset="0.816406"/><stop stop-opacity="1" stop-color="rgb(99.165344%, 33.673096%, 3.2547%)" offset="0.820313"/><stop stop-opacity="1" stop-color="rgb(99.171448%, 33.433533%, 3.222656%)" offset="0.824219"/><stop stop-opacity="1" stop-color="rgb(99.179077%, 33.19397%, 3.190613%)" offset="0.828125"/><stop stop-opacity="1" stop-color="rgb(99.185181%, 32.954407%, 3.158569%)" offset="0.832031"/><stop stop-opacity="1" stop-color="rgb(99.19281%, 32.714844%, 3.128052%)" offset="0.835938"/><stop stop-opacity="1" stop-color="rgb(99.195862%, 32.606506%, 3.112793%)" offset="0.84375"/><stop stop-opacity="1" stop-color="rgb(99.198914%, 32.499695%, 3.09906%)" offset="0.875"/><stop stop-opacity="1" stop-color="rgb(99.198914%, 32.499695%, 3.09906%)" offset="1"/></linearGradient></defs><g clip-path="url(#05c1ccf881)"><g clip-path="url(#949510500a)"><path fill="url(#69e31791a2)" d="M 123.359375 209.039062 L 123.359375 47.113281 L 251.582031 47.113281 L 251.582031 209.039062 Z M 123.359375 209.039062 " fill-rule="nonzero"/></g></g><path fill="#ffffff" d="M 191.699219 128.039062 C 191.699219 141.613281 202.9375 152.371094 216.019531 152.371094 C 229.589844 152.371094 240.34375 141.613281 240.34375 128.039062 C 240.34375 114.460938 229.589844 103.707031 216.019531 103.707031 C 202.9375 103.707031 191.699219 114.460938 191.699219 128.039062 Z M 191.699219 128.039062 " fill-opacity="1" fill-rule="nonzero"/><g fill="#000000" fill-opacity="1"><g transform="translate(110.235149, 283.648516)"><g><path d="M 12.140625 -16.21875 L 12.140625 0 L 3.1875 0 L 3.1875 -41.3125 L 21.84375 -41.3125 L 21.84375 -33.59375 L 12.140625 -33.59375 L 12.140625 -23.6875 L 21.203125 -23.6875 L 21.203125 -16.21875 Z M 12.140625 -16.21875 "/></g></g></g><g fill="#000000" fill-opacity="1"><g transform="translate(139.036398, 283.648516)"><g><path d="M 12.140625 -16.921875 L 12.140625 0 L 3.1875 0 L 3.1875 -41.3125 L 19.09375 -41.3125 C 24.375 -41.3125 27.015625 -38.503906 27.015625 -32.890625 L 27.015625 -28.09375 C 27.015625 -24.6875 25.800781 -22.515625 23.375 -21.578125 C 25.5 -20.816406 26.5625 -19.070312 26.5625 -16.34375 L 26.5625 0 L 17.625 0 L 17.625 -15.640625 C 17.625 -16.492188 17.21875 -16.921875 16.40625 -16.921875 Z M 12.140625 -35.25 L 12.140625 -23.1875 L 16.859375 -23.1875 C 17.203125 -23.1875 17.488281 -23.3125 17.71875 -23.5625 C 17.957031 -23.820312 18.078125 -24.117188 18.078125 -24.453125 L 18.078125 -33.96875 C 18.078125 -34.3125 17.957031 -34.609375 17.71875 -34.859375 C 17.488281 -35.117188 17.203125 -35.25 16.859375 -35.25 Z M 12.140625 -35.25 "/></g></g></g><g fill="#000000" fill-opacity="1"><g transform="translate(173.521059, 283.648516)"><g><path d="M 12.140625 -7.40625 L 22.03125 -7.40625 L 22.03125 0 L 3.1875 0 L 3.1875 -41.3125 L 22.03125 -41.3125 L 22.03125 -34.03125 L 12.140625 -34.03125 L 12.140625 -24.328125 L 21.390625 -24.328125 L 21.390625 -17.3125 L 12.140625 -17.3125 Z M 12.140625 -7.40625 "/></g></g></g><g fill="#000000" fill-opacity="1"><g transform="translate(202.450032, 283.648516)"><g><path d="M 27.140625 -41.3125 L 18.265625 -15.078125 L 18.265625 0 L 9.328125 0 L 9.328125 -15.078125 L 0.453125 -41.3125 L 8.875 -41.3125 L 13.796875 -24.078125 L 18.703125 -41.3125 Z M 27.140625 -41.3125 "/></g></g></g><g fill="#000000" fill-opacity="1"><g transform="translate(235.146647, 283.648516)"><g><path d="M 12.140625 -16.921875 L 12.140625 0 L 3.1875 0 L 3.1875 -41.3125 L 19.09375 -41.3125 C 24.375 -41.3125 27.015625 -38.503906 27.015625 -32.890625 L 27.015625 -28.09375 C 27.015625 -24.6875 25.800781 -22.515625 23.375 -21.578125 C 25.5 -20.816406 26.5625 -19.070312 26.5625 -16.34375 L 26.5625 0 L 17.625 0 L 17.625 -15.640625 C 17.625 -16.492188 17.21875 -16.921875 16.40625 -16.921875 Z M 12.140625 -35.25 L 12.140625 -23.1875 L 16.859375 -23.1875 C 17.203125 -23.1875 17.488281 -23.3125 17.71875 -23.5625 C 17.957031 -23.820312 18.078125 -24.117188 18.078125 -24.453125 L 18.078125 -33.96875 C 18.078125 -34.3125 17.957031 -34.609375 17.71875 -34.859375 C 17.488281 -35.117188 17.203125 -35.25 16.859375 -35.25 Z M 12.140625 -35.25 "/></g></g></g><g fill="#000000" fill-opacity="1"><g transform="translate(121.332282, 320.223438)"><g><path d="M 5.082031 0 L 8.6875 0 L 11.398438 -9.414062 L 14.136719 0 L 17.71875 0 L 22.316406 -17.183594 L 18.394531 -17.183594 L 15.78125 -5.953125 L 12.753906 -16.871094 L 10.191406 -16.871094 L 7.140625 -6.003906 L 4.355469 -17.183594 L 0.410156 -17.183594 Z M 5.082031 0 "/></g></g></g><g fill="#000000" fill-opacity="1"><g transform="translate(149.829729, 320.223438)"><g><path d="M 7.359375 0.242188 C 9.777344 0.242188 11.230469 -0.4375 12.902344 -2.421875 L 10.578125 -4.261719 C 9.828125 -3.4375 8.957031 -2.6875 7.527344 -2.6875 C 5.929688 -2.6875 4.574219 -3.605469 4.476562 -5.375 L 13.046875 -5.375 L 13.046875 -6.800781 C 13.046875 -11.183594 10.285156 -13.167969 7.042969 -13.167969 C 3.847656 -13.167969 0.96875 -10.820312 0.96875 -6.390625 C 0.96875 -1.863281 3.96875 0.242188 7.359375 0.242188 Z M 4.476562 -7.746094 C 4.574219 -9.367188 5.640625 -10.359375 7.019531 -10.359375 C 8.472656 -10.359375 9.535156 -9.464844 9.535156 -7.746094 Z M 4.476562 -7.746094 "/></g></g></g><g fill="#000000" fill-opacity="1"><g transform="translate(169.571049, 320.223438)"><g><path d="M 5.132812 0.195312 C 7.382812 0.195312 8.472656 -1.066406 8.714844 -1.476562 L 8.980469 0 L 11.882812 0 L 11.882812 -7.574219 C 11.882812 -11.398438 9.800781 -13.167969 6.21875 -13.167969 C 4.285156 -13.167969 1.816406 -12.175781 1.039062 -10.042969 L 3.65625 -8.617188 C 4.210938 -9.679688 5.011719 -10.117188 6.195312 -10.117188 C 7.40625 -10.117188 8.328125 -9.707031 8.328125 -8.011719 L 8.328125 -7.601562 C 7.964844 -7.671875 6.824219 -7.84375 6.027344 -7.84375 C 2.394531 -7.84375 0.847656 -5.808594 0.847656 -3.679688 C 0.847656 -1.5 2.542969 0.195312 5.132812 0.195312 Z M 5.976562 -2.734375 C 5.058594 -2.734375 4.285156 -3.027344 4.285156 -3.96875 C 4.285156 -4.839844 4.890625 -5.375 6.367188 -5.375 C 7.164062 -5.375 8.011719 -5.300781 8.300781 -5.277344 L 8.300781 -4.382812 C 8.179688 -3.605469 7.117188 -2.734375 5.976562 -2.734375 Z M 5.976562 -2.734375 "/></g></g></g><g fill="#000000" fill-opacity="1"><g transform="translate(188.417413, 320.223438)"><g><path d="M 2.226562 -3.703125 C 2.226562 -1.1875 3.847656 0.0742188 6.460938 0.0742188 C 7.210938 0.0742188 7.964844 0 8.277344 -0.0742188 L 8.277344 -2.976562 L 7.695312 -2.976562 C 6.535156 -2.976562 5.953125 -3.292969 5.953125 -4.839844 L 5.953125 -10.042969 L 8.328125 -10.042969 L 8.328125 -12.925781 L 5.953125 -12.925781 L 5.953125 -16.410156 L 2.929688 -16.410156 L 2.203125 -12.925781 L 0.507812 -12.925781 L 0.507812 -10.042969 L 2.226562 -10.042969 Z M 2.226562 -3.703125 "/></g></g></g><g fill="#000000" fill-opacity="1"><g transform="translate(203.34529, 320.223438)"><g><path d="M 1.621094 0 L 5.46875 0 L 5.46875 -7.1875 C 5.46875 -8.714844 6.246094 -9.679688 7.574219 -9.679688 C 8.957031 -9.679688 9.679688 -8.90625 9.679688 -7.1875 L 9.679688 0 L 13.554688 0 L 13.554688 -7.238281 C 13.554688 -11.304688 11.304688 -13.167969 9.050781 -13.167969 C 7.382812 -13.167969 6.125 -12.441406 5.46875 -11.398438 L 5.46875 -17.667969 L 1.621094 -17.667969 Z M 1.621094 0 "/></g></g></g><g fill="#000000" fill-opacity="1"><g transform="translate(223.860627, 320.223438)"><g><path d="M 7.359375 0.242188 C 9.777344 0.242188 11.230469 -0.4375 12.902344 -2.421875 L 10.578125 -4.261719 C 9.828125 -3.4375 8.957031 -2.6875 7.527344 -2.6875 C 5.929688 -2.6875 4.574219 -3.605469 4.476562 -5.375 L 13.046875 -5.375 L 13.046875 -6.800781 C 13.046875 -11.183594 10.285156 -13.167969 7.042969 -13.167969 C 3.847656 -13.167969 0.96875 -10.820312 0.96875 -6.390625 C 0.96875 -1.863281 3.96875 0.242188 7.359375 0.242188 Z M 4.476562 -7.746094 C 4.574219 -9.367188 5.640625 -10.359375 7.019531 -10.359375 C 8.472656 -10.359375 9.535156 -9.464844 9.535156 -7.746094 Z M 4.476562 -7.746094 "/></g></g></g><g fill="#000000" fill-opacity="1"><g transform="translate(243.601952, 320.223438)"><g><path d="M 1.523438 0 L 5.300781 0 L 5.300781 -6.558594 C 5.300781 -8.785156 6.269531 -9.65625 8.421875 -9.65625 C 8.808594 -9.65625 9.222656 -9.632812 9.679688 -9.585938 L 9.679688 -13.070312 C 9.320312 -13.144531 8.859375 -13.167969 8.398438 -13.167969 C 6.851562 -13.167969 5.203125 -12.078125 4.695312 -10.796875 L 4.5 -12.925781 L 1.523438 -12.925781 Z M 1.523438 0 "/></g></g></g></svg>