<svg xmlns="http://www.w3.org/2000/svg" xmlns:xlink="http://www.w3.org/1999/xlink" width="1000" zoomAndPan="magnify" viewBox="0 0 750 299.999988" height="400" preserveAspectRatio="xMidYMid meet" version="1.0"><defs><g/><clipPath id="f0871b4de5"><path d="M 77.480469 16.699219 L 288.980469 16.699219 L 288.980469 282.949219 L 77.480469 282.949219 Z M 77.480469 16.699219 " clip-rule="nonzero"/></clipPath><clipPath id="9dfb727056"><path d="M 278.164062 258.90625 L 259.628906 227.242188 C 255.785156 229.535156 251.136719 231.886719 247.292969 234.183594 L 256.53125 268.144531 C 264.277344 265.847656 271.21875 262.75 278.164062 258.90625 Z M 230.308594 91.445312 C 262.726562 91.445312 288.953125 117.664062 288.953125 150.078125 C 288.953125 182.492188 262.726562 207.964844 230.308594 207.964844 C 198.691406 207.964844 172.414062 182.492188 172.414062 150.078125 C 172.414062 117.664062 198.691406 91.445312 230.308594 91.445312 Z M 230.308594 109.972656 C 252.6875 109.972656 270.417969 127.703125 270.417969 150.078125 C 270.417969 172.453125 252.6875 190.179688 230.308594 190.179688 C 208.679688 190.179688 190.199219 172.453125 190.199219 150.078125 C 190.199219 127.703125 208.730469 109.972656 230.308594 109.972656 Z M 211.027344 67.519531 C 236.503906 67.519531 259.628906 79.109375 275.066406 98.386719 C 262.726562 87.601562 247.292969 81.40625 230.308594 81.40625 C 191.695312 81.40625 160.824219 112.269531 160.824219 150.078125 C 160.824219 187.886719 191.695312 218.75 230.308594 218.75 C 247.292969 218.75 262.726562 212.554688 275.066406 201.769531 C 259.628906 221.046875 236.449219 232.632812 211.027344 232.632812 C 164.722656 232.632812 127.65625 195.574219 127.65625 150.078125 C 127.65625 104.582031 164.722656 67.519531 211.027344 67.519531 Z M 256.585938 39.753906 L 248.84375 66.773438 C 253.488281 69.070312 258.882812 72.167969 263.527344 75.265625 L 278.214844 49.042969 C 271.21875 45.148438 264.277344 42.050781 256.585938 39.753906 Z M 207.183594 16.578125 L 212.578125 59.03125 C 218.773438 59.03125 224.914062 59.777344 230.308594 60.578125 L 235.703125 19.675781 C 228.011719 18.125 219.519531 16.578125 211.027344 16.578125 C 209.480469 16.578125 208.730469 16.578125 207.183594 16.578125 Z M 165.472656 48.992188 L 174.710938 65.972656 C 180.90625 63.675781 187.046875 61.328125 193.242188 60.578125 L 187.046875 39.753906 C 179.410156 42.050781 172.414062 45.148438 165.472656 48.992188 Z M 109.925781 63.675781 L 143.09375 89.148438 C 146.9375 83.753906 152.332031 79.910156 157.78125 76.011719 L 132.304688 42.851562 C 123.8125 48.992188 116.121094 55.933594 109.925781 63.675781 Z M 107.628906 119.210938 L 123.066406 123.859375 C 125.359375 117.664062 127.710938 111.523438 130.808594 105.328125 L 116.921875 97.585938 C 113.023438 104.527344 109.925781 111.46875 107.628906 119.210938 Z M 79.054688 169.355469 L 119.96875 163.960938 C 119.96875 159.316406 119.21875 154.722656 119.21875 150.078125 C 119.21875 147.78125 119.21875 146.234375 119.21875 143.882812 L 78.253906 138.488281 C 77.507812 142.335938 77.507812 146.234375 77.507812 150.078125 C 77.507812 156.273438 78.253906 163.214844 79.054688 169.355469 Z M 116.867188 210.257812 L 134.601562 200.21875 C 130.753906 194.828125 127.65625 189.433594 125.359375 183.238281 L 107.628906 188.632812 C 109.925781 196.375 113.023438 203.316406 116.867188 210.257812 Z M 135.402344 260.402344 L 161.625 227.242188 C 156.230469 223.394531 151.585938 219.496094 146.9375 215.652344 L 113.769531 241.125 C 120.714844 248.066406 127.65625 255.007812 135.402344 260.402344 Z M 187.101562 268.144531 L 194.847656 240.378906 C 189.453125 238.828125 184.058594 237.28125 178.664062 235.730469 L 165.523438 258.90625 C 172.414062 262.75 179.410156 265.847656 187.101562 268.144531 Z M 234.957031 281.28125 L 229.5625 239.628906 C 224.167969 240.378906 219.519531 241.179688 214.125 241.179688 L 208.730469 282.828125 C 209.480469 282.828125 210.28125 283.578125 211.027344 283.578125 C 218.773438 283.578125 227.210938 282.828125 234.957031 281.28125 Z M 234.957031 281.28125 " clip-rule="nonzero"/></clipPath><linearGradient x1="103.348099" gradientTransform="matrix(0.07803, 0, 0, -0.0780174, 73.824994, 88.427366)" y1="-2543.4361" x2="2999.818529" gradientUnits="userSpaceOnUse" y2="702.689532" id="93cec6f922"><stop stop-opacity="1" stop-color="rgb(97.999573%, 74.099731%, 8.599854%)" offset="0"/><stop stop-opacity="1" stop-color="rgb(97.999573%, 74.099731%, 8.599854%)" offset="0.125"/><stop stop-opacity="1" stop-color="rgb(97.999573%, 74.099731%, 8.599854%)" offset="0.15625"/><stop stop-opacity="1" stop-color="rgb(98.002625%, 73.959351%, 8.580017%)" offset="0.164063"/><stop stop-opacity="1" stop-color="rgb(98.013306%, 73.579407%, 8.529663%)" offset="0.167969"/><stop stop-opacity="1" stop-color="rgb(98.020935%, 73.339844%, 8.499146%)" offset="0.171875"/><stop stop-opacity="1" stop-color="rgb(98.027039%, 73.100281%, 8.467102%)" offset="0.175781"/><stop stop-opacity="1" stop-color="rgb(98.034668%, 72.862244%, 8.435059%)" offset="0.179688"/><stop stop-opacity="1" stop-color="rgb(98.040771%, 72.622681%, 8.403015%)" offset="0.183594"/><stop stop-opacity="1" stop-color="rgb(98.048401%, 72.384644%, 8.372498%)" offset="0.1875"/><stop stop-opacity="1" stop-color="rgb(98.054504%, 72.145081%, 8.340454%)" offset="0.191406"/><stop stop-opacity="1" stop-color="rgb(98.062134%, 71.905518%, 8.309937%)" offset="0.195312"/><stop stop-opacity="1" stop-color="rgb(98.068237%, 71.665955%, 8.277893%)" offset="0.199219"/><stop stop-opacity="1" stop-color="rgb(98.075867%, 71.427917%, 8.24585%)" offset="0.203125"/><stop stop-opacity="1" stop-color="rgb(98.08197%, 71.188354%, 8.213806%)" offset="0.207031"/><stop stop-opacity="1" stop-color="rgb(98.0896%, 70.950317%, 8.183289%)" offset="0.210938"/><stop stop-opacity="1" stop-color="rgb(98.095703%, 70.710754%, 8.151245%)" offset="0.214844"/><stop stop-opacity="1" stop-color="rgb(98.103333%, 70.471191%, 8.119202%)" offset="0.21875"/><stop stop-opacity="1" stop-color="rgb(98.109436%, 70.231628%, 8.087158%)" offset="0.222656"/><stop stop-opacity="1" stop-color="rgb(98.117065%, 69.993591%, 8.056641%)" offset="0.226563"/><stop stop-opacity="1" stop-color="rgb(98.123169%, 69.754028%, 8.024597%)" offset="0.230469"/><stop stop-opacity="1" stop-color="rgb(98.130798%, 69.515991%, 7.992554%)" offset="0.234375"/><stop stop-opacity="1" stop-color="rgb(98.136902%, 69.276428%, 7.96051%)" offset="0.238281"/><stop stop-opacity="1" stop-color="rgb(98.144531%, 69.036865%, 7.929993%)" offset="0.242188"/><stop stop-opacity="1" stop-color="rgb(98.152161%, 68.797302%, 7.897949%)" offset="0.246094"/><stop stop-opacity="1" stop-color="rgb(98.15979%, 68.559265%, 7.867432%)" offset="0.25"/><stop stop-opacity="1" stop-color="rgb(98.165894%, 68.319702%, 7.835388%)" offset="0.253906"/><stop stop-opacity="1" stop-color="rgb(98.173523%, 68.081665%, 7.803345%)" offset="0.257812"/><stop stop-opacity="1" stop-color="rgb(98.179626%, 67.842102%, 7.771301%)" offset="0.261719"/><stop stop-opacity="1" stop-color="rgb(98.187256%, 67.602539%, 7.740784%)" offset="0.265625"/><stop stop-opacity="1" stop-color="rgb(98.193359%, 67.362976%, 7.70874%)" offset="0.269531"/><stop stop-opacity="1" stop-color="rgb(98.200989%, 67.124939%, 7.676697%)" offset="0.273438"/><stop stop-opacity="1" stop-color="rgb(98.207092%, 66.885376%, 7.644653%)" offset="0.277344"/><stop stop-opacity="1" stop-color="rgb(98.214722%, 66.647339%, 7.614136%)" offset="0.28125"/><stop stop-opacity="1" stop-color="rgb(98.220825%, 66.407776%, 7.582092%)" offset="0.285156"/><stop stop-opacity="1" stop-color="rgb(98.228455%, 66.168213%, 7.550049%)" offset="0.289062"/><stop stop-opacity="1" stop-color="rgb(98.234558%, 65.92865%, 7.518005%)" offset="0.292969"/><stop stop-opacity="1" stop-color="rgb(98.242188%, 65.690613%, 7.487488%)" offset="0.296875"/><stop stop-opacity="1" stop-color="rgb(98.248291%, 65.45105%, 7.455444%)" offset="0.300781"/><stop stop-opacity="1" stop-color="rgb(98.25592%, 65.213013%, 7.424927%)" offset="0.304688"/><stop stop-opacity="1" stop-color="rgb(98.262024%, 64.97345%, 7.392883%)" offset="0.308594"/><stop stop-opacity="1" stop-color="rgb(98.269653%, 64.733887%, 7.36084%)" offset="0.3125"/><stop stop-opacity="1" stop-color="rgb(98.275757%, 64.494324%, 7.328796%)" offset="0.316406"/><stop stop-opacity="1" stop-color="rgb(98.283386%, 64.256287%, 7.298279%)" offset="0.320313"/><stop stop-opacity="1" stop-color="rgb(98.28949%, 64.016724%, 7.266235%)" offset="0.324219"/><stop stop-opacity="1" stop-color="rgb(98.297119%, 63.778687%, 7.234192%)" offset="0.328125"/><stop stop-opacity="1" stop-color="rgb(98.303223%, 63.539124%, 7.202148%)" offset="0.332031"/><stop stop-opacity="1" stop-color="rgb(98.310852%, 63.299561%, 7.171631%)" offset="0.335938"/><stop stop-opacity="1" stop-color="rgb(98.316956%, 63.059998%, 7.139587%)" offset="0.339844"/><stop stop-opacity="1" stop-color="rgb(98.324585%, 62.82196%, 7.107544%)" offset="0.34375"/><stop stop-opacity="1" stop-color="rgb(98.330688%, 62.582397%, 7.0755%)" offset="0.347656"/><stop stop-opacity="1" stop-color="rgb(98.338318%, 62.34436%, 7.044983%)" offset="0.351562"/><stop stop-opacity="1" stop-color="rgb(98.344421%, 62.104797%, 7.012939%)" offset="0.355469"/><stop stop-opacity="1" stop-color="rgb(98.352051%, 61.865234%, 6.982422%)" offset="0.359375"/><stop stop-opacity="1" stop-color="rgb(98.358154%, 61.625671%, 6.950378%)" offset="0.363281"/><stop stop-opacity="1" stop-color="rgb(98.365784%, 61.387634%, 6.918335%)" offset="0.367188"/><stop stop-opacity="1" stop-color="rgb(98.371887%, 61.148071%, 6.886292%)" offset="0.371094"/><stop stop-opacity="1" stop-color="rgb(98.379517%, 60.910034%, 6.855774%)" offset="0.375"/><stop stop-opacity="1" stop-color="rgb(98.38562%, 60.670471%, 6.82373%)" offset="0.378906"/><stop stop-opacity="1" stop-color="rgb(98.39325%, 60.430908%, 6.791687%)" offset="0.382813"/><stop stop-opacity="1" stop-color="rgb(98.399353%, 60.191345%, 6.759644%)" offset="0.386719"/><stop stop-opacity="1" stop-color="rgb(98.406982%, 59.953308%, 6.729126%)" offset="0.390625"/><stop stop-opacity="1" stop-color="rgb(98.413086%, 59.713745%, 6.697083%)" offset="0.394531"/><stop stop-opacity="1" stop-color="rgb(98.420715%, 59.475708%, 6.665039%)" offset="0.398438"/><stop stop-opacity="1" stop-color="rgb(98.426819%, 59.236145%, 6.632996%)" offset="0.402344"/><stop stop-opacity="1" stop-color="rgb(98.434448%, 58.996582%, 6.602478%)" offset="0.40625"/><stop stop-opacity="1" stop-color="rgb(98.440552%, 58.757019%, 6.570435%)" offset="0.410156"/><stop stop-opacity="1" stop-color="rgb(98.448181%, 58.518982%, 6.539917%)" offset="0.414063"/><stop stop-opacity="1" stop-color="rgb(98.454285%, 58.279419%, 6.507874%)" offset="0.417969"/><stop stop-opacity="1" stop-color="rgb(98.461914%, 58.041382%, 6.47583%)" offset="0.421875"/><stop stop-opacity="1" stop-color="rgb(98.468018%, 57.801819%, 6.443787%)" offset="0.425781"/><stop stop-opacity="1" stop-color="rgb(98.475647%, 57.562256%, 6.413269%)" offset="0.429688"/><stop stop-opacity="1" stop-color="rgb(98.48175%, 57.322693%, 6.381226%)" offset="0.433594"/><stop stop-opacity="1" stop-color="rgb(98.48938%, 57.084656%, 6.349182%)" offset="0.4375"/><stop stop-opacity="1" stop-color="rgb(98.495483%, 56.845093%, 6.317139%)" offset="0.441406"/><stop stop-opacity="1" stop-color="rgb(98.503113%, 56.607056%, 6.286621%)" offset="0.445312"/><stop stop-opacity="1" stop-color="rgb(98.510742%, 56.367493%, 6.254578%)" offset="0.449219"/><stop stop-opacity="1" stop-color="rgb(98.518372%, 56.12793%, 6.22406%)" offset="0.453125"/><stop stop-opacity="1" stop-color="rgb(98.524475%, 55.888367%, 6.192017%)" offset="0.457031"/><stop stop-opacity="1" stop-color="rgb(98.532104%, 55.65033%, 6.159973%)" offset="0.460938"/><stop stop-opacity="1" stop-color="rgb(98.538208%, 55.410767%, 6.12793%)" offset="0.464844"/><stop stop-opacity="1" stop-color="rgb(98.545837%, 55.172729%, 6.097412%)" offset="0.46875"/><stop stop-opacity="1" stop-color="rgb(98.551941%, 54.933167%, 6.065369%)" offset="0.472656"/><stop stop-opacity="1" stop-color="rgb(98.55957%, 54.693604%, 6.033325%)" offset="0.476563"/><stop stop-opacity="1" stop-color="rgb(98.565674%, 54.454041%, 6.001282%)" offset="0.480469"/><stop stop-opacity="1" stop-color="rgb(98.573303%, 54.216003%, 5.970764%)" offset="0.484375"/><stop stop-opacity="1" stop-color="rgb(98.579407%, 53.97644%, 5.938721%)" offset="0.488281"/><stop stop-opacity="1" stop-color="rgb(98.587036%, 53.738403%, 5.906677%)" offset="0.492188"/><stop stop-opacity="1" stop-color="rgb(98.59314%, 53.49884%, 5.874634%)" offset="0.496094"/><stop stop-opacity="1" stop-color="rgb(98.600769%, 53.259277%, 5.844116%)" offset="0.5"/><stop stop-opacity="1" stop-color="rgb(98.606873%, 53.019714%, 5.812073%)" offset="0.503906"/><stop stop-opacity="1" stop-color="rgb(98.614502%, 52.781677%, 5.781555%)" offset="0.507813"/><stop stop-opacity="1" stop-color="rgb(98.620605%, 52.542114%, 5.749512%)" offset="0.511719"/><stop stop-opacity="1" stop-color="rgb(98.628235%, 52.304077%, 5.717468%)" offset="0.515625"/><stop stop-opacity="1" stop-color="rgb(98.634338%, 52.064514%, 5.685425%)" offset="0.519531"/><stop stop-opacity="1" stop-color="rgb(98.641968%, 51.826477%, 5.654907%)" offset="0.523438"/><stop stop-opacity="1" stop-color="rgb(98.648071%, 51.586914%, 5.622864%)" offset="0.527344"/><stop stop-opacity="1" stop-color="rgb(98.655701%, 51.347351%, 5.59082%)" offset="0.53125"/><stop stop-opacity="1" stop-color="rgb(98.661804%, 51.107788%, 5.558777%)" offset="0.535156"/><stop stop-opacity="1" stop-color="rgb(98.669434%, 50.869751%, 5.528259%)" offset="0.539062"/><stop stop-opacity="1" stop-color="rgb(98.675537%, 50.630188%, 5.496216%)" offset="0.542969"/><stop stop-opacity="1" stop-color="rgb(98.683167%, 50.392151%, 5.464172%)" offset="0.546875"/><stop stop-opacity="1" stop-color="rgb(98.68927%, 50.152588%, 5.432129%)" offset="0.550781"/><stop stop-opacity="1" stop-color="rgb(98.696899%, 49.913025%, 5.401611%)" offset="0.554688"/><stop stop-opacity="1" stop-color="rgb(98.703003%, 49.673462%, 5.369568%)" offset="0.558594"/><stop stop-opacity="1" stop-color="rgb(98.710632%, 49.435425%, 5.33905%)" offset="0.5625"/><stop stop-opacity="1" stop-color="rgb(98.716736%, 49.195862%, 5.307007%)" offset="0.566406"/><stop stop-opacity="1" stop-color="rgb(98.724365%, 48.957825%, 5.274963%)" offset="0.570312"/><stop stop-opacity="1" stop-color="rgb(98.730469%, 48.718262%, 5.24292%)" offset="0.574219"/><stop stop-opacity="1" stop-color="rgb(98.738098%, 48.478699%, 5.212402%)" offset="0.578125"/><stop stop-opacity="1" stop-color="rgb(98.744202%, 48.239136%, 5.180359%)" offset="0.582031"/><stop stop-opacity="1" stop-color="rgb(98.751831%, 48.001099%, 5.148315%)" offset="0.585938"/><stop stop-opacity="1" stop-color="rgb(98.757935%, 47.761536%, 5.116272%)" offset="0.589844"/><stop stop-opacity="1" stop-color="rgb(98.765564%, 47.523499%, 5.085754%)" offset="0.59375"/><stop stop-opacity="1" stop-color="rgb(98.771667%, 47.283936%, 5.053711%)" offset="0.597656"/><stop stop-opacity="1" stop-color="rgb(98.779297%, 47.044373%, 5.021667%)" offset="0.601563"/><stop stop-opacity="1" stop-color="rgb(98.7854%, 46.80481%, 4.989624%)" offset="0.605469"/><stop stop-opacity="1" stop-color="rgb(98.79303%, 46.566772%, 4.959106%)" offset="0.609375"/><stop stop-opacity="1" stop-color="rgb(98.799133%, 46.327209%, 4.927063%)" offset="0.613281"/><stop stop-opacity="1" stop-color="rgb(98.806763%, 46.089172%, 4.896545%)" offset="0.617188"/><stop stop-opacity="1" stop-color="rgb(98.812866%, 45.849609%, 4.864502%)" offset="0.621094"/><stop stop-opacity="1" stop-color="rgb(98.820496%, 45.610046%, 4.832458%)" offset="0.625"/><stop stop-opacity="1" stop-color="rgb(98.826599%, 45.370483%, 4.800415%)" offset="0.628906"/><stop stop-opacity="1" stop-color="rgb(98.834229%, 45.132446%, 4.769897%)" offset="0.632812"/><stop stop-opacity="1" stop-color="rgb(98.840332%, 44.892883%, 4.737854%)" offset="0.636719"/><stop stop-opacity="1" stop-color="rgb(98.847961%, 44.654846%, 4.705811%)" offset="0.640625"/><stop stop-opacity="1" stop-color="rgb(98.854065%, 44.415283%, 4.673767%)" offset="0.644531"/><stop stop-opacity="1" stop-color="rgb(98.861694%, 44.17572%, 4.64325%)" offset="0.648438"/><stop stop-opacity="1" stop-color="rgb(98.869324%, 43.936157%, 4.611206%)" offset="0.652344"/><stop stop-opacity="1" stop-color="rgb(98.876953%, 43.69812%, 4.579163%)" offset="0.65625"/><stop stop-opacity="1" stop-color="rgb(98.883057%, 43.458557%, 4.547119%)" offset="0.660156"/><stop stop-opacity="1" stop-color="rgb(98.890686%, 43.22052%, 4.516602%)" offset="0.664062"/><stop stop-opacity="1" stop-color="rgb(98.89679%, 42.980957%, 4.484558%)" offset="0.667969"/><stop stop-opacity="1" stop-color="rgb(98.904419%, 42.741394%, 4.454041%)" offset="0.671875"/><stop stop-opacity="1" stop-color="rgb(98.910522%, 42.501831%, 4.421997%)" offset="0.675781"/><stop stop-opacity="1" stop-color="rgb(98.918152%, 42.263794%, 4.389954%)" offset="0.679688"/><stop stop-opacity="1" stop-color="rgb(98.924255%, 42.024231%, 4.35791%)" offset="0.683594"/><stop stop-opacity="1" stop-color="rgb(98.931885%, 41.786194%, 4.327393%)" offset="0.6875"/><stop stop-opacity="1" stop-color="rgb(98.937988%, 41.546631%, 4.295349%)" offset="0.691406"/><stop stop-opacity="1" stop-color="rgb(98.945618%, 41.307068%, 4.263306%)" offset="0.695313"/><stop stop-opacity="1" stop-color="rgb(98.951721%, 41.067505%, 4.231262%)" offset="0.699219"/><stop stop-opacity="1" stop-color="rgb(98.959351%, 40.829468%, 4.200745%)" offset="0.703125"/><stop stop-opacity="1" stop-color="rgb(98.965454%, 40.589905%, 4.168701%)" offset="0.707031"/><stop stop-opacity="1" stop-color="rgb(98.973083%, 40.351868%, 4.136658%)" offset="0.710938"/><stop stop-opacity="1" stop-color="rgb(98.979187%, 40.112305%, 4.104614%)" offset="0.714844"/><stop stop-opacity="1" stop-color="rgb(98.986816%, 39.872742%, 4.074097%)" offset="0.71875"/><stop stop-opacity="1" stop-color="rgb(98.99292%, 39.633179%, 4.042053%)" offset="0.722656"/><stop stop-opacity="1" stop-color="rgb(99.000549%, 39.395142%, 4.011536%)" offset="0.726562"/><stop stop-opacity="1" stop-color="rgb(99.006653%, 39.155579%, 3.979492%)" offset="0.730469"/><stop stop-opacity="1" stop-color="rgb(99.014282%, 38.917542%, 3.947449%)" offset="0.734375"/><stop stop-opacity="1" stop-color="rgb(99.020386%, 38.677979%, 3.915405%)" offset="0.738281"/><stop stop-opacity="1" stop-color="rgb(99.028015%, 38.438416%, 3.884888%)" offset="0.742188"/><stop stop-opacity="1" stop-color="rgb(99.034119%, 38.198853%, 3.852844%)" offset="0.746094"/><stop stop-opacity="1" stop-color="rgb(99.041748%, 37.960815%, 3.820801%)" offset="0.75"/><stop stop-opacity="1" stop-color="rgb(99.047852%, 37.721252%, 3.788757%)" offset="0.753906"/><stop stop-opacity="1" stop-color="rgb(99.055481%, 37.483215%, 3.75824%)" offset="0.757812"/><stop stop-opacity="1" stop-color="rgb(99.061584%, 37.243652%, 3.726196%)" offset="0.761719"/><stop stop-opacity="1" stop-color="rgb(99.069214%, 37.004089%, 3.694153%)" offset="0.765625"/><stop stop-opacity="1" stop-color="rgb(99.075317%, 36.764526%, 3.662109%)" offset="0.769531"/><stop stop-opacity="1" stop-color="rgb(99.082947%, 36.526489%, 3.631592%)" offset="0.773438"/><stop stop-opacity="1" stop-color="rgb(99.08905%, 36.286926%, 3.599548%)" offset="0.777344"/><stop stop-opacity="1" stop-color="rgb(99.09668%, 36.048889%, 3.569031%)" offset="0.78125"/><stop stop-opacity="1" stop-color="rgb(99.102783%, 35.809326%, 3.536987%)" offset="0.785156"/><stop stop-opacity="1" stop-color="rgb(99.110413%, 35.569763%, 3.504944%)" offset="0.789063"/><stop stop-opacity="1" stop-color="rgb(99.116516%, 35.3302%, 3.4729%)" offset="0.792969"/><stop stop-opacity="1" stop-color="rgb(99.124146%, 35.092163%, 3.442383%)" offset="0.796875"/><stop stop-opacity="1" stop-color="rgb(99.130249%, 34.8526%, 3.410339%)" offset="0.800781"/><stop stop-opacity="1" stop-color="rgb(99.137878%, 34.614563%, 3.378296%)" offset="0.804688"/><stop stop-opacity="1" stop-color="rgb(99.143982%, 34.375%, 3.346252%)" offset="0.808594"/><stop stop-opacity="1" stop-color="rgb(99.151611%, 34.135437%, 3.315735%)" offset="0.8125"/><stop stop-opacity="1" stop-color="rgb(99.157715%, 33.895874%, 3.283691%)" offset="0.816406"/><stop stop-opacity="1" stop-color="rgb(99.165344%, 33.657837%, 3.253174%)" offset="0.820312"/><stop stop-opacity="1" stop-color="rgb(99.171448%, 33.418274%, 3.22113%)" offset="0.824219"/><stop stop-opacity="1" stop-color="rgb(99.179077%, 33.180237%, 3.189087%)" offset="0.828125"/><stop stop-opacity="1" stop-color="rgb(99.185181%, 32.940674%, 3.157043%)" offset="0.832031"/><stop stop-opacity="1" stop-color="rgb(99.19281%, 32.701111%, 3.126526%)" offset="0.835938"/><stop stop-opacity="1" stop-color="rgb(99.195862%, 32.600403%, 3.112793%)" offset="0.84375"/><stop stop-opacity="1" stop-color="rgb(99.198914%, 32.499695%, 3.09906%)" offset="0.875"/><stop stop-opacity="1" stop-color="rgb(99.198914%, 32.499695%, 3.09906%)" offset="1"/></linearGradient></defs><g clip-path="url(#f0871b4de5)"><g clip-path="url(#9dfb727056)"><path fill="url(#93cec6f922)" d="M 77.507812 282.949219 L 77.507812 16.699219 L 288.953125 16.699219 L 288.953125 282.949219 Z M 77.507812 282.949219 " fill-rule="nonzero"/></g></g><path fill="#ffffff" d="M 190.199219 150.078125 C 190.199219 172.453125 208.730469 190.179688 230.308594 190.179688 C 252.6875 190.179688 270.417969 172.453125 270.417969 150.078125 C 270.417969 127.703125 252.6875 109.972656 230.308594 109.972656 C 208.730469 109.972656 190.199219 127.703125 190.199219 150.078125 Z M 190.199219 150.078125 " fill-opacity="1" fill-rule="nonzero"/><g fill="#ffffff" fill-opacity="1"><g transform="translate(315.08258, 169.633176)"><g><path d="M 28.421875 -38 L 28.421875 0 L 7.484375 0 L 7.484375 -96.8125 L 51.171875 -96.8125 L 51.171875 -78.703125 L 28.421875 -78.703125 L 28.421875 -55.515625 L 49.671875 -55.515625 L 49.671875 -38 Z M 28.421875 -38 "/></g></g></g><g fill="#ffffff" fill-opacity="1"><g transform="translate(382.56387, 169.633176)"><g><path d="M 28.421875 -39.65625 L 28.421875 0 L 7.484375 0 L 7.484375 -96.8125 L 44.734375 -96.8125 C 57.109375 -96.8125 63.296875 -90.226562 63.296875 -77.0625 L 63.296875 -65.828125 C 63.296875 -57.847656 60.453125 -52.765625 54.765625 -50.578125 C 59.753906 -48.773438 62.25 -44.679688 62.25 -38.296875 L 62.25 0 L 41.296875 0 L 41.296875 -36.65625 C 41.296875 -38.65625 40.347656 -39.65625 38.453125 -39.65625 Z M 28.421875 -82.59375 L 28.421875 -54.3125 L 39.5 -54.3125 C 40.300781 -54.3125 40.972656 -54.609375 41.515625 -55.203125 C 42.066406 -55.804688 42.34375 -56.507812 42.34375 -57.3125 L 42.34375 -79.59375 C 42.34375 -80.394531 42.066406 -81.09375 41.515625 -81.6875 C 40.972656 -82.289062 40.300781 -82.59375 39.5 -82.59375 Z M 28.421875 -82.59375 "/></g></g></g><g fill="#ffffff" fill-opacity="1"><g transform="translate(463.361593, 169.633176)"><g><path d="M 28.421875 -17.359375 L 51.625 -17.359375 L 51.625 0 L 7.484375 0 L 7.484375 -96.8125 L 51.625 -96.8125 L 51.625 -79.75 L 28.421875 -79.75 L 28.421875 -57 L 50.125 -57 L 50.125 -40.546875 L 28.421875 -40.546875 Z M 28.421875 -17.359375 "/></g></g></g><g fill="#ffffff" fill-opacity="1"><g transform="translate(531.142122, 169.633176)"><g><path d="M 63.59375 -96.8125 L 42.796875 -35.3125 L 42.796875 0 L 21.84375 0 L 21.84375 -35.3125 L 1.046875 -96.8125 L 20.796875 -96.8125 L 32.3125 -56.40625 L 43.84375 -96.8125 Z M 63.59375 -96.8125 "/></g></g></g><g fill="#ffffff" fill-opacity="1"><g transform="translate(607.750393, 169.633176)"><g><path d="M 28.421875 -39.65625 L 28.421875 0 L 7.484375 0 L 7.484375 -96.8125 L 44.734375 -96.8125 C 57.109375 -96.8125 63.296875 -90.226562 63.296875 -77.0625 L 63.296875 -65.828125 C 63.296875 -57.847656 60.453125 -52.765625 54.765625 -50.578125 C 59.753906 -48.773438 62.25 -44.679688 62.25 -38.296875 L 62.25 0 L 41.296875 0 L 41.296875 -36.65625 C 41.296875 -38.65625 40.347656 -39.65625 38.453125 -39.65625 Z M 28.421875 -82.59375 L 28.421875 -54.3125 L 39.5 -54.3125 C 40.300781 -54.3125 40.972656 -54.609375 41.515625 -55.203125 C 42.066406 -55.804688 42.34375 -56.507812 42.34375 -57.3125 L 42.34375 -79.59375 C 42.34375 -80.394531 42.066406 -81.09375 41.515625 -81.6875 C 40.972656 -82.289062 40.300781 -82.59375 39.5 -82.59375 Z M 28.421875 -82.59375 "/></g></g></g><g fill="#ffffff" fill-opacity="1"><g transform="translate(320.442295, 244.447434)"><g><path d="M 13.488281 0 L 23.058594 0 L 30.25 -24.984375 L 37.507812 0 L 47.011719 0 L 59.214844 -45.601562 L 48.8125 -45.601562 L 41.875 -15.800781 L 33.847656 -44.765625 L 27.039062 -44.765625 L 18.945312 -15.929688 L 11.5625 -45.601562 L 1.09375 -45.601562 Z M 13.488281 0 "/></g></g></g><g fill="#ffffff" fill-opacity="1"><g transform="translate(396.096555, 244.447434)"><g><path d="M 19.523438 0.640625 C 25.945312 0.640625 29.800781 -1.15625 34.230469 -6.421875 L 28.066406 -11.304688 C 26.074219 -9.121094 23.761719 -7.128906 19.972656 -7.128906 C 15.734375 -7.128906 12.140625 -9.570312 11.882812 -14.257812 L 34.617188 -14.257812 L 34.617188 -18.046875 C 34.617188 -29.671875 27.296875 -34.9375 18.691406 -34.9375 C 10.210938 -34.9375 2.570312 -28.707031 2.570312 -16.957031 C 2.570312 -4.945312 10.53125 0.640625 19.523438 0.640625 Z M 11.882812 -20.550781 C 12.140625 -24.855469 14.964844 -27.488281 18.625 -27.488281 C 22.480469 -27.488281 25.304688 -25.113281 25.304688 -20.550781 Z M 11.882812 -20.550781 "/></g></g></g><g fill="#ffffff" fill-opacity="1"><g transform="translate(448.50362, 244.447434)"><g><path d="M 13.617188 0.515625 C 19.589844 0.515625 22.480469 -2.824219 23.121094 -3.917969 L 23.828125 0 L 31.535156 0 L 31.535156 -20.101562 C 31.535156 -30.25 26.011719 -34.9375 16.507812 -34.9375 C 11.367188 -34.9375 4.816406 -32.304688 2.761719 -26.652344 L 9.699219 -22.863281 C 11.175781 -25.691406 13.292969 -26.847656 16.441406 -26.847656 C 19.652344 -26.847656 22.09375 -25.753906 22.09375 -21.257812 L 22.09375 -20.167969 C 21.128906 -20.359375 18.113281 -20.808594 15.992188 -20.808594 C 6.359375 -20.808594 2.246094 -15.414062 2.246094 -9.761719 C 2.246094 -3.980469 6.742188 0.515625 13.617188 0.515625 Z M 15.863281 -7.257812 C 13.421875 -7.257812 11.367188 -8.027344 11.367188 -10.53125 C 11.367188 -12.84375 12.972656 -14.257812 16.890625 -14.257812 C 19.011719 -14.257812 21.257812 -14.066406 22.03125 -14 L 22.03125 -11.625 C 21.707031 -9.570312 18.882812 -7.257812 15.863281 -7.257812 Z M 15.863281 -7.257812 "/></g></g></g><g fill="#ffffff" fill-opacity="1"><g transform="translate(498.53457, 244.447434)"><g><path d="M 5.910156 -9.828125 C 5.910156 -3.148438 10.210938 0.191406 17.148438 0.191406 C 19.140625 0.191406 21.128906 0 21.964844 -0.191406 L 21.964844 -7.898438 L 20.421875 -7.898438 C 17.339844 -7.898438 15.800781 -8.734375 15.800781 -12.84375 L 15.800781 -26.652344 L 22.09375 -26.652344 L 22.09375 -34.296875 L 15.800781 -34.296875 L 15.800781 -43.546875 L 7.769531 -43.546875 L 5.84375 -34.296875 L 1.347656 -34.296875 L 1.347656 -26.652344 L 5.910156 -26.652344 Z M 5.910156 -9.828125 "/></g></g></g><g fill="#ffffff" fill-opacity="1"><g transform="translate(538.162098, 244.447434)"><g><path d="M 4.304688 0 L 14.515625 0 L 14.515625 -19.074219 C 14.515625 -23.121094 16.570312 -25.691406 20.101562 -25.691406 C 23.761719 -25.691406 25.691406 -23.636719 25.691406 -19.074219 L 25.691406 0 L 35.964844 0 L 35.964844 -19.203125 C 35.964844 -29.992188 29.992188 -34.9375 24.019531 -34.9375 C 19.589844 -34.9375 16.25 -33.011719 14.515625 -30.25 L 14.515625 -46.886719 L 4.304688 -46.886719 Z M 4.304688 0 "/></g></g></g><g fill="#ffffff" fill-opacity="1"><g transform="translate(592.624169, 244.447434)"><g><path d="M 19.523438 0.640625 C 25.945312 0.640625 29.800781 -1.15625 34.230469 -6.421875 L 28.066406 -11.304688 C 26.074219 -9.121094 23.761719 -7.128906 19.972656 -7.128906 C 15.734375 -7.128906 12.140625 -9.570312 11.882812 -14.257812 L 34.617188 -14.257812 L 34.617188 -18.046875 C 34.617188 -29.671875 27.296875 -34.9375 18.691406 -34.9375 C 10.210938 -34.9375 2.570312 -28.707031 2.570312 -16.957031 C 2.570312 -4.945312 10.53125 0.640625 19.523438 0.640625 Z M 11.882812 -20.550781 C 12.140625 -24.855469 14.964844 -27.488281 18.625 -27.488281 C 22.480469 -27.488281 25.304688 -25.113281 25.304688 -20.550781 Z M 11.882812 -20.550781 "/></g></g></g><g fill="#ffffff" fill-opacity="1"><g transform="translate(645.03122, 244.447434)"><g><path d="M 4.046875 0 L 14.066406 0 L 14.066406 -17.40625 C 14.066406 -23.3125 16.632812 -25.625 22.351562 -25.625 C 23.378906 -25.625 24.46875 -25.5625 25.691406 -25.433594 L 25.691406 -34.683594 C 24.726562 -34.875 23.507812 -34.9375 22.285156 -34.9375 C 18.175781 -34.9375 13.808594 -32.046875 12.460938 -28.644531 L 11.945312 -34.296875 L 4.046875 -34.296875 Z M 4.046875 0 "/></g></g></g></svg>